# AST/ASF file generated using VICON BodyLanguage
# -----------------------------------------------
:version 1.10
:name VICON
:units
  mass 1.0
  length 0.45
  angle deg
:documentation
   .ast/.asf automatically generated from VICON data using
   VICON BodyBuilder and BodyLanguage model FoxedUp or BRILLIANT.MOD
:root
   order TX TY TZ RX RY RZ
   axis XYZ
   position 0 0 0  
   orientation 0 0 0 
:bonedata
  begin
     id 1 
     name lhipjoint
     direction 0.621036 -0.695554 0.361275 
     length 2.46325 
     axis 0 0 0  XYZ
  end
  begin
     id 2 
     name lfemur
     direction 0.34202 -0.939693 0  
     length 6.54784  
     axis 0 0 20  XYZ
    dof rx ry rz
    limits (-160.0 20.0)
           (-70.0 70.0)
           (-60.0 70.0)
  end
  begin
     id 3 
     name ltibia
     direction 0.34202 -0.939693 0   
     length 7.84737   
     axis 0 0 20   XYZ
    dof rx
    limits (-10.0 170.0)
  end
  begin
     id 4 
     name lfoot
     direction 0.0790693 -0.217241 0.97291   
     length 2.59747   
     axis -90 7.62852e-016 20   XYZ
    dof rx rz
    limits (-45.0 90.0)
           (-70.0 20.0)
  end
  begin
     id 5 
     name ltoes
     direction 1.53572e-011 -4.21898e-011 1   
     length 1.29919   
     axis -90 7.62852e-016 20   XYZ
    dof rx
    limits (-90.0 20.0)
  end
  begin
     id 6 
     name rhipjoint
     direction -0.602353 -0.708375 0.367935   
     length 2.41867  
     axis 0 0 0  XYZ 
  end
  begin
     id 7 
     name rfemur
     direction -0.34202 -0.939693 0   
     length 6.92065   
     axis 0 0 -20   XYZ
    dof rx ry rz
    limits (-160.0 20.0)
           (-70.0 70.0)
           (-70.0 60.0)
  end
  begin
     id 8 
     name rtibia
     direction -0.34202 -0.939693 0   
     length 7.88883   
     axis 0 0 -20   XYZ
    dof rx
    limits (-10.0 170.0)
 end
 begin
     id 9 
     name rfoot
     direction -0.0768692 -0.211196 0.974416   
     length 2.43714  
     axis -90 -7.62852e-016 -20   XYZ
    dof rx rz
    limits (-45.0 90.0)
           (-20.0 70.0)
  end
  begin
     id 10 
     name rtoes
     direction -1.53575e-011 -4.21933e-011 1   
     length 1.22113   
     axis -90 -7.62852e-016 -20   XYZ
    dof rx
    limits (-90.0 20.0)
  end
  begin
     id 11 
     name lowerback
     direction 0.0197937 0.98943 -0.143655   
     length 2.16931   
     axis 0 0 0   XYZ
    dof rx ry rz
    limits (-20.0 45.0)
           (-30.0 30.0)
           (-30.0 30.0)
  end
  begin
     id 12 
     name upperback
     direction -0.00183968 0.999975 0.00684288   
     length 2.17221   
     axis 0 0 0   XYZ
    dof rx ry rz
    limits (-20.0 45.0)
           (-30.0 30.0)
           (-30.0 30.0)
  end
  begin
     id 13 
     name thorax
     direction -0.00950244 0.997208 0.0740685   
     length 2.22549   
     axis 0 0 0   XYZ
    dof rx ry rz
    limits (-20.0 45.0)
           (-30.0 30.0)
           (-30.0 30.0)
  end
  begin
     id 14 
     name lowerneck
     direction 0.0218238 0.996215 0.0841425   
     length 1.77269   
     axis 0 0 0   XYZ
    dof rx ry rz
    limits (-20.0 45.0)
           (-30.0 30.0)
           (-30.0 30.0)
  end
  begin
     id 15 
     name upperneck
     direction -0.00430652 0.994214 -0.107332   
     length 1.76534   
     axis 0 0 0   XYZ
    dof rx ry rz
    limits (-20.0 45.0)
           (-30.0 30.0)
           (-30.0 30.0)
  end
  begin
     id 16
     name head
     direction -0.00328946 0.998959 -0.0454998  
     length 1.82634  
     axis 0 0 0   XYZ
    dof rx ry rz
    limits (-20.0 45.0)
           (-30.0 30.0)
           (-30.0 30.0)
  end
  begin
     id 17 
     name lclavicle
     direction 0.970962 0.239191 0.00450212  
     length 3.84872  
     axis 0 0 0   XYZ
    dof ry rz
    limits (-20.0 10.0)
           (0.0 20.0)
  end
  begin
     id 18 
     name lhumerus
     direction 1 -4.48966e-011 5.74696e-028   
     length 5.22771   
     axis 180 -30 -90   XYZ
    dof rx ry rz
    limits (-60.0 90.0)
           (-90.0 90.0)
           (-90.0 90.0)
  end
  begin
     id 19
     name lradius
     direction 1 -4.4896e-011 4.25109e-027   
     length 3.45251   
     axis 180 -30 -90   XYZ
    dof rx
    limits (-10.0 170.0)
  end
  begin
     id 20
     name lwrist
     direction 1 -4.48971e-011 1.15382e-027   
     length 1.72626   
     axis -5.52449e-016 90 90   XYZ
    dof ry
    limits (-180.0 0.0)
 end
  begin
     id 21 
     name lhand
     direction 1 -4.49034e-011 2.30765e-027   
     length 0.552119   
     axis -1.47248e-015 90 90   XYZ
    dof rx rz
    limits (-90.0 90.0)
           (-45.0 45.0)
  end
  begin
     id 22 
     name lfingers
     direction 1 -4.48951e-011 4.61529e-027   
     length 0.445133   
     axis -2.94495e-015 90 90   XYZ
    dof rx
    limits (0.0 90.0)
  end
  begin
     id 23
     name lthumb
     direction 0.707107 -6.34991e-011 0.707107   
     length 0.639124   
     axis -90 45 2.85299e-015   XYZ
    dof rx rz
    limits (-45.0 45.0)
           (-45.0 45.0)
  end
  begin
     id 24 
     name rclavicle
     direction -0.97424 0.222511 -0.0366699   
     length 3.73439  
     axis 0 0 0   XYZ 
    dof ry rz
    limits (-10.0 20.0)
           (-20.0 0.0)
  end
  begin
     id 25 
     name rhumerus
     direction -1 -4.48956e-011 -4.97258e-028  
     length 5.2398   
     axis 180 30 90   XYZ
    dof rx ry rz
    limits (-90.0 60.0)
           (-90.0 90.0)
           (-90.0 90.0)
  end
  begin
     id 26 
     name rradius
     direction -1 -4.4897e-011 -1.72611e-027   
     length 3.48042   
     axis 180 30 90   XYZ
    dof rx
    limits (-10.0 170.0)
  end
  begin
     id 27 
     name rwrist
     direction -1 -4.48976e-011 1.15382e-027   
     length 1.74021   
     axis -5.52449e-016 -90 -90   XYZ
    dof ry
    limits (-180.0 0.0)
  end
  begin
     id 28
     name rhand
     direction -1 -4.48963e-011 2.30765e-027   
     length 0.618713   
     axis -1.47248e-015 -90 -90   XYZ
    dof rx rz
    limits (-90.0 90.0)
           (-45.0 45.0)
  end
  begin
     id 29
     name rfingers
     direction -1 -4.4888e-011 4.61529e-027   
     length 0.498823   
     axis -2.94495e-015 -90 -90   XYZ
    dof rx
    limits (0.0 90.0)
  end
  begin
     id 30
     name rthumb
     direction -0.707107 -6.34968e-011 0.707107   
     length 0.716213   
     axis -90 -45 -2.85299e-015   XYZ
    dof rx rz
    limits (-45.0 45.0)
           (-45.0 45.0)
  end
:hierarchy
  begin
    root lhipjoint rhipjoint lowerback
    lhipjoint lfemur
    lfemur ltibia
    ltibia lfoot
    lfoot ltoes
    rhipjoint rfemur
    rfemur rtibia
    rtibia rfoot
    rfoot rtoes
    lowerback upperback
    upperback thorax
    thorax lowerneck lclavicle rclavicle
    lowerneck upperneck
    upperneck head
    lclavicle lhumerus
    lhumerus lradius
    lradius lwrist
    lwrist lhand lthumb
    lhand lfingers
    rclavicle rhumerus
    rhumerus rradius
    rradius rwrist
    rwrist rhand rthumb
    rhand rfingers
  end

#!OML:ASF G:\JayActor3\Patient Classification 1\Patient 1\Session 5\male.ASF
:FULLY-SPECIFIED
:DEGREES
160
root -38.1089 18.2389 -5.64287 114.835 -87.7133 -117.498
lowerback -0.501331 -1.09177 2.41842
upperback 0.993596 -1.49041 0.167793
thorax 1.24195 -0.72412 -1.2055
lowerneck -6.30367 -0.145427 1.47058
upperneck 8.0012 -0.535636 1.73341
head 3.71856 -0.159455 0.284191
rclavicle 3.94619e-015 -2.08724e-015
rhumerus -34.4059 -9.63239 -83.6726
rradius 25.3931
rwrist 5.60792
rhand -17.482 -6.02891
rfingers 7.12502
rthumb 8.77023 -35.8267
lclavicle 3.94619e-015 -2.08724e-015
lhumerus -33.2166 6.09786 83.3754
lradius 24.5297
lwrist 17.1014
lhand -17.6492 11.8973
lfingers 7.12502
lthumb 8.60889 41.7017
rfemur -4.27444 -0.0225236 23.0593
rtibia 30.9805
rfoot 2.39927 -11.1736
rtoes -4.78407
lfemur 2.91984 7.37976 -16.172
ltibia 19.7829
lfoot 10.2119 4.75028
ltoes -27.4876
161
root -38.1091 18.2403 -5.64241 113.551 -87.7637 -116.219
lowerback -0.462405 -1.09275 2.4108
upperback 0.963614 -1.4897 0.157904
thorax 1.18931 -0.724591 -1.21011
lowerneck -6.23596 -0.149018 1.47787
upperneck 7.98229 -0.539327 1.73142
head 3.69854 -0.161833 0.282014
rclavicle -1.14192e-014 4.07509e-015
rhumerus -34.469 -9.66528 -83.6644
rradius 25.4061
rwrist 5.6229
rhand -17.4842 -6.02388
rfingers 7.12502
rthumb 8.76809 -35.8218
lclavicle -1.14192e-014 4.07509e-015
lhumerus -33.2982 6.07112 83.3697
lradius 24.5578
lwrist 17.0978
lhand -17.6167 11.958
lfingers 7.12502
lthumb 8.64028 41.7612
rfemur -4.27263 -0.0692266 23.042
rtibia 30.9889
rfoot 2.37031 -11.2338
rtoes -4.59615
lfemur 2.90955 7.37356 -16.2115
ltibia 19.7782
lfoot 10.246 4.83308
ltoes -27.1314
162
root -38.1091 18.242 -5.64184 112.372 -87.8023 -115.041
lowerback -0.432383 -1.09133 2.41008
upperback 0.937884 -1.48629 0.150393
thorax 1.14604 -0.723522 -1.21636
lowerneck -6.17192 -0.150922 1.48496
upperneck 7.95796 -0.540675 1.7303
head 3.67737 -0.163024 0.280275
rclavicle 2.05463e-014 -6.95746e-015
rhumerus -34.5244 -9.69373 -83.6591
rradius 25.4222
rwrist 5.64294
rhand -17.4891 -6.00051
rfingers 7.12502
rthumb 8.76336 -35.7986
lclavicle 2.05463e-014 -6.95746e-015
lhumerus -33.3669 6.0601 83.3596
lradius 24.5784
lwrist 17.0829
lhand -17.6049 11.9641
lfingers 7.12502
lthumb 8.65161 41.7668
rfemur -4.27925 -0.111786 23.0354
rtibia 30.9937
rfoot 2.34367 -11.3014
rtoes -4.31153
lfemur 2.88808 7.37033 -16.2457
ltibia 19.7865
lfoot 10.266 4.92994
ltoes -26.7553
163
root -38.1089 18.2439 -5.64198 111.34 -87.8065 -114.006
lowerback -0.412325 -1.08377 2.42646
upperback 0.920136 -1.47548 0.153804
thorax 1.11669 -0.71847 -1.22124
lowerneck -6.11197 -0.152783 1.49928
upperneck 7.92201 -0.541585 1.72125
head 3.65287 -0.16414 0.274653
rclavicle -9.00743e-017 1.98785e-016
rhumerus -34.5648 -9.72357 -83.6537
rradius 25.439
rwrist 5.68517
rhand -17.4809 -5.96391
rfingers 7.12502
rthumb 8.7713 -35.7616
lclavicle -9.00743e-017 1.98785e-016
lhumerus -33.4185 6.06005 83.3479
lradius 24.5959
lwrist 17.0627
lhand -17.6199 11.8962
lfingers 7.12502
lthumb 8.63715 41.6996
rfemur -4.29404 -0.114305 23.0721
rtibia 30.9937
rfoot 2.32053 -11.4049
rtoes -4.01314
lfemur 2.85289 7.36838 -16.2477
ltibia 19.8128
lfoot 10.2744 5.04572
ltoes -26.3273
164
root -38.1083 18.246 -5.64284 110.53 -87.7846 -113.188
lowerback -0.414015 -1.07187 2.44928
upperback 0.917363 -1.46006 0.16732
thorax 1.1152 -0.710695 -1.21999
lowerneck -6.06302 -0.152042 1.51313
upperneck 7.87442 -0.538694 1.71204
head 3.62648 -0.163367 0.269235
rclavicle 1.02995e-014 1.68967e-015
rhumerus -34.5764 -9.73898 -83.6578
rradius 25.4547
rwrist 5.72638
rhand -17.4713 -5.93904
rfingers 7.12502
rthumb 8.78054 -35.7364
lclavicle 1.02995e-014 1.68967e-015
lhumerus -33.4447 6.07262 83.3367
lradius 24.6113
lwrist 17.043
lhand -17.671 11.7232
lfingers 7.12502
lthumb 8.58782 41.5286
rfemur -4.31927 -0.0695236 23.1437
rtibia 30.9897
rfoot 2.30357 -11.5501
rtoes -3.70551
lfemur 2.80118 7.36593 -16.2267
ltibia 19.8574
lfoot 10.269 5.18563
ltoes -25.8363
165
root -38.1068 18.2483 -5.64347 109.85 -87.7596 -112.493
lowerback -0.429977 -1.05908 2.47111
upperback 0.925882 -1.44413 0.182747
thorax 1.13339 -0.702366 -1.21667
lowerneck -6.03627 -0.143339 1.53321
upperneck 7.80886 -0.525411 1.70227
head 3.59814 -0.157208 0.263025
rclavicle 3.76914e-015 -6.85807e-015
rhumerus -34.5632 -9.74478 -83.6691
rradius 25.4734
rwrist 5.76825
rhand -17.4609 -5.92885
rfingers 7.12502
rthumb 8.79063 -35.7258
lclavicle 3.76914e-015 -6.85807e-015
lhumerus -33.4469 6.09301 83.328
lradius 24.6286
lwrist 17.027
lhand -17.6854 11.6816
lfingers 7.12502
lthumb 8.57396 41.4875
rfemur -4.35979 -0.00594037 23.2187
rtibia 30.9855
rfoot 2.3021 -11.7098
rtoes -3.38105
lfemur 2.72761 7.35941 -16.2097
ltibia 19.9173
lfoot 10.2675 5.33037
ltoes -25.3155
166
root -38.1046 18.2508 -5.6438 109.198 -87.7421 -111.817
lowerback -0.455042 -1.04673 2.48661
upperback 0.940297 -1.4291 0.196377
thorax 1.16281 -0.694352 -1.21191
lowerneck -6.0324 -0.137213 1.54814
upperneck 7.75522 -0.516007 1.6942
head 3.57851 -0.15279 0.258111
rclavicle -1.40609e-014 -4.77083e-015
rhumerus -34.5323 -9.74939 -83.6835
rradius 25.489
rwrist 5.81092
rhand -17.4519 -5.93288
rfingers 7.12502
rthumb 8.79927 -35.7294
lclavicle -1.40609e-014 -4.77083e-015
lhumerus -33.4356 6.11075 83.323
lradius 24.6534
lwrist 17.021
lhand -17.7133 11.6194
lfingers 7.12502
lthumb 8.54702 41.4265
rfemur -4.41771 0.0690608 23.2862
rtibia 30.9871
rfoot 2.31731 -11.8757
rtoes -3.0627
lfemur 2.6375 7.35424 -16.2043
ltibia 19.9807
lfoot 10.2776 5.46658
ltoes -24.7793
